<svg xmlns="http://www.w3.org/2000/svg" xmlns:xlink="http://www.w3.org/1999/xlink" width="512" height="512" viewBox="0 0 512 512" fill="none"><g><path     fill="#FECC4A"  d="M256.01 42.67C128.009 42.67 42.67 128.009 42.67 256.01C42.67 384.011 117.342 469.34 256.01 469.34C384.011 469.34 469.34 384.011 469.34 256.01C469.34 128.009 384.011 42.67 256.01 42.67"></path><path     fill="url(#linear_fill_U8MpyV9dxU_1)"  d="M256.01 42.67C128.009 42.67 42.67 128.009 42.67 256.01C42.67 384.011 117.342 469.34 256.01 469.34C384.011 469.34 469.34 384.011 469.34 256.01C469.34 128.009 384.011 42.67 256.01 42.67"></path></g><path d="M256 320C256 355.346 227.346 384 192 384C156.654 384 128 355.346 128 320C128 284.654 156.654 256 192 256L256 320Z"   fill="#FFFFFF" ></path><circle cx="191.99501708984374" cy="319.99501708984377" r="42.665"   fill="#000000" ></circle><path d="M256 320C256 355.346 284.654 384 320 384C355.346 384 384 355.346 384 320C384 284.654 355.346 256 320 256L256 320Z"   fill="#FFFFFF" ></path><circle cx="320.00502685546877" cy="319.99501708984377" r="42.665"   fill="#000000" ></circle><path    stroke="rgba(0, 0, 0, 1)" stroke-width="21.33333396911621" stroke-linejoin="round" stroke-linecap="round"  d="M234.058 407.238C224.598 395.343 210.892 386.756 194.732 384.002"></path><path    stroke="rgba(0, 0, 0, 1)" stroke-width="22" stroke-linejoin="round" stroke-linecap="round"  d="M235.255 309.255L190 264"></path><path    stroke="rgba(0, 0, 0, 1)" stroke-width="22" stroke-linejoin="round" stroke-linecap="round"  d="M275 309.255L320.255 264"></path><defs><radialGradient id="linear_fill_U8MpyV9dxU_1" cx="0" cy="0" r="1" gradientTransform="translate(256.0050048828125 117.3372802734375) rotate(-180) scale(352.00280761718756, 352.0028076171875)" gradientUnits="userSpaceOnUse"><stop offset="0" stop-color="#FF8F27"  /><stop offset="1" stop-color="#EB5567"  /></radialGradient></defs></svg>