<svg xmlns="http://www.w3.org/2000/svg" xmlns:xlink="http://www.w3.org/1999/xlink" width="512" height="512" viewBox="0 0 512 512" fill="none"><g><path d="M469 256C469 383.8 383.8 469 256 469C128.2 469 43 383.8 43 256C43 128.2 128.2 43 256 43C383.8 43 469 128.2 469 256Z"   fill="url(#linear_fill_zkZKIuV5p7)" ></path></g><g mask="url(#mask-xriPpe2WDp)" opacity="0.5"><g><ellipse cx="83.62497314453125" cy="255.995009765625" rx="91.965" ry="56.485"   fill="#F68240" ></ellipse></g></g><g mask="url(#mask-xriPpe2WDp)" opacity="0.5"><g><ellipse cx="428.37503417968753" cy="255.995009765625" rx="91.965" ry="56.485"   fill="#F68240" ></ellipse></g></g><circle cx="330.5500244140625" cy="191.9" r="63.9"   fill="#FFFFFF" ></circle><circle cx="181.44998779296876" cy="191.9" r="63.9"   fill="#FFFFFF" ></circle><circle cx="330.5500122070313" cy="191.900048828125" r="42.6"   fill="#000000" ></circle><circle cx="181.4499755859375" cy="191.900048828125" r="42.6"   fill="#000000" ></circle><path    stroke="rgba(0, 0, 0, 1)" stroke-width="22" stroke-linejoin="round" stroke-linecap="round"  d="M135.005 144.778C145.224 142.454 154.482 136.043 160.135 126.251"></path><path    stroke="rgba(0, 0, 0, 1)" stroke-width="22" stroke-linejoin="round" stroke-linecap="round"  d="M376.135 144.778C365.916 142.454 356.658 136.043 351.005 126.251"></path><path   fill="rgba(0, 0, 0, 1)"  d="M235 275L235 285L224 285L235 285C235 296.598 244.402 306 256 306L256 317L256 306C267.598 306 277 296.598 277 285L288 285L277 285L277 275L299 275L299 285L299 285C299 308.748 279.748 328 256 328L256 328C232.252 328 213 308.748 213 285L213 285L213 275L235 275ZM224 286C217.925 286 213 281.075 213 275C213 268.925 217.925 264 224 264C230.075 264 235 268.925 235 275C235 281.075 230.075 286 224 286ZM288 286C281.925 286 277 281.075 277 275C277 268.925 281.925 264 288 264C294.075 264 299 268.925 299 275C299 281.075 294.075 286 288 286Z"></path><defs><radialGradient id="linear_fill_zkZKIuV5p7" cx="0" cy="0" r="1" gradientTransform="translate(256 117.550048828125) rotate(-180) scale(351.44995117187494, 351.449951171875)" gradientUnits="userSpaceOnUse"><stop offset="0" stop-color="#FFD027"  /><stop offset="1" stop-color="#EB9455"  /></radialGradient><radialGradient id="linear_fill_xriPpe2WDp" cx="0" cy="0" r="1" gradientTransform="translate(256 117.550048828125) rotate(-180) scale(351.44995117187494, 351.449951171875)" gradientUnits="userSpaceOnUse"><stop offset="0" stop-color="#FFD027"  /><stop offset="1" stop-color="#EB9455"  /></radialGradient><mask id="mask-xriPpe2WDp" style="mask-type:alpha" maskUnits="userSpaceOnUse"><path d="M469 256C469 383.8 383.8 469 256 469C128.2 469 43 383.8 43 256C43 128.2 128.2 43 256 43C383.8 43 469 128.2 469 256Z"   fill="url(#linear_fill_xriPpe2WDp)" ></path></mask></defs></svg>