<svg xmlns="http://www.w3.org/2000/svg" xmlns:xlink="http://www.w3.org/1999/xlink" width="512" height="512" viewBox="0 0 512 512" fill="none"><g><path     fill="url(#linear_fill_xWwoTbav77ka_rySivmzO_0)"  d="M256 43C128.2 43 43 128.2 43 256C43 383.8 128.2 469 256 469C383.8 469 469 383.8 469 256C469 128.2 383.8 43 256 43"></path><path     fill="url(#linear_fill_xWwoTbav77ka_rySivmzO_1)"  d="M256 43C128.2 43 43 128.2 43 256C43 383.8 128.2 469 256 469C383.8 469 469 383.8 469 256C469 128.2 383.8 43 256 43"></path></g><g mask="url(#mask-xWwoTbav77ka_rySivmzO)" opacity="0.6"><g><path d="M142 373C142 406.137 115.137 433 82 433C48.8632 433 22 406.137 22 373C22 324.999 48.8632 274 82 274C115.137 274 142 324.999 142 373Z"   fill="#1D7AD1" ></path></g></g><circle cx="330.54990234375" cy="191.9" r="63.9"   fill="#FFFFFF" ></circle><circle cx="181.450048828125" cy="191.9" r="63.9"   fill="#FFFFFF" ></circle><circle cx="330.549951171875" cy="191.900048828125" r="42.6"   fill="#000000" ></circle><circle cx="181.45009765625" cy="191.900048828125" r="42.6"   fill="#000000" ></circle><path    stroke="rgba(0, 0, 0, 1)" stroke-width="22" stroke-linejoin="round" stroke-linecap="round"  d="M135.005 144.778C145.224 142.454 154.482 136.043 160.135 126.251"></path><path    stroke="rgba(0, 0, 0, 1)" stroke-width="22" stroke-linejoin="round" stroke-linecap="round"  d="M376.135 144.778C365.916 142.454 356.658 136.043 351.005 126.251"></path><g><path     fill="url(#linear_fill_yftMf9Kt8JZi9e0XepOIc_0)"  d="M290 298L290 290C290 271.222 274.778 256 256 256C237.222 256 222 271.222 222 290L222 298L290 298"></path></g><g><path d="M139 341C139 374.137 112.137 401 79 401C45.8632 401 19 374.137 19 341C19 292.999 45.8632 242 79 242C112.137 242 139 292.999 139 341Z"   fill="url(#linear_fill_BWGXqqgmQB8iu9CeTqjcF)" ></path></g><g style="mix-blend-mode:color-dodge"><rect  x="53.461181640625" y="279.0054931640625" width="24.07" height="48.15" transform="rotate(15.000000120055857 53.461181640625 279.0054931640625)" rx="12.035"    fill="#FFFFFF" fill-opacity="0.9"></rect></g><defs><radialGradient id="linear_fill_xWwoTbav77ka_rySivmzO_0" cx="0" cy="0" r="1" gradientTransform="translate(256 117.550048828125) rotate(-180) scale(351.44995117187494, 351.449951171875)" gradientUnits="userSpaceOnUse"><stop offset="0" stop-color="#FFD027"  /><stop offset="1" stop-color="#EB9455"  /></radialGradient><linearGradient id="linear_fill_xWwoTbav77ka_rySivmzO_1" x1="256" y1="43" x2="256" y2="315.9765625" gradientUnits="userSpaceOnUse"><stop offset="0" stop-color="#32B83F"  /><stop offset="1" stop-color="#20A82E" stop-opacity="0.01" /></linearGradient><mask id="mask-xWwoTbav77ka_rySivmzO" style="mask-type:alpha" maskUnits="userSpaceOnUse"><path     fill="url(#linear_fill_xWwoTbav77ka_rySivmzO_0)"  d="M256 43C128.2 43 43 128.2 43 256C43 383.8 128.2 469 256 469C383.8 469 469 383.8 469 256C469 128.2 383.8 43 256 43"></path><path     fill="url(#linear_fill_xWwoTbav77ka_rySivmzO_1)"  d="M256 43C128.2 43 43 128.2 43 256C43 383.8 128.2 469 256 469C383.8 469 469 383.8 469 256C469 128.2 383.8 43 256 43"></path></mask><linearGradient id="linear_fill_yftMf9Kt8JZi9e0XepOIc_0" x1="258.833251953125" y1="256" x2="258.833251953125" y2="298" gradientUnits="userSpaceOnUse"><stop offset="0" stop-color="#D44C4C"  /><stop offset="1" stop-color="#6D2347"  /></linearGradient><radialGradient id="linear_fill_BWGXqqgmQB8iu9CeTqjcF" cx="0" cy="0" r="1" gradientTransform="translate(79 256.5) rotate(-180) scale(121.64576044556614, 144.5)" gradientUnits="userSpaceOnUse"><stop offset="0" stop-color="#ABD7FF" stop-opacity="0.6" /><stop offset="0.8323994278907776" stop-color="#1E7DD6"  /><stop offset="1" stop-color="#2794F9" stop-opacity="0.8" /></radialGradient></defs></svg>