<svg xmlns="http://www.w3.org/2000/svg" xmlns:xlink="http://www.w3.org/1999/xlink" width="512" height="512" viewBox="0 0 512 512" fill="none"><g><path     fill="url(#linear_fill_zAUH4SX58wFxJkovLmhCM_0)"  d="M256 43C128.2 43 43 128.2 43 256C43 383.8 128.2 469 256 469C383.8 469 469 383.8 469 256C469 128.2 383.8 43 256 43"></path><path     fill="url(#linear_fill_zAUH4SX58wFxJkovLmhCM_1)"  d="M256 43C128.2 43 43 128.2 43 256C43 383.8 128.2 469 256 469C383.8 469 469 383.8 469 256C469 128.2 383.8 43 256 43"></path></g><path    stroke="rgba(0, 0, 0, 1)" stroke-width="22" stroke-linejoin="round"   d="M166 147L224 173.923L166 197"></path><path    stroke="rgba(0, 0, 0, 1)" stroke-width="22" stroke-linejoin="round" stroke-linecap="round"  d="M346 147L288 173.923L346 197"></path><path    stroke="rgba(0, 0, 0, 1)" stroke-width="22" stroke-linejoin="round" stroke-linecap="round"  d="M135 117.777C145.219 115.453 154.477 109.041 160.13 99.25"></path><path    stroke="rgba(0, 0, 0, 1)" stroke-width="22" stroke-linejoin="round" stroke-linecap="round"  d="M376.13 117.777C365.911 115.453 356.653 109.041 351 99.25"></path><path    stroke="rgba(0, 0, 0, 1)" stroke-width="22" stroke-linejoin="round" stroke-linecap="round"  d="M414 241.001L374.5 267.001L335 241.001L295.5 267.001L256 241.001L216.5 267L177 241L137.5 267L98 241"></path><defs><radialGradient id="linear_fill_zAUH4SX58wFxJkovLmhCM_0" cx="0" cy="0" r="1" gradientTransform="translate(256 117.5498046875) rotate(-180) scale(351.45019531249994, 351.4501953125)" gradientUnits="userSpaceOnUse"><stop offset="0" stop-color="#FFD027"  /><stop offset="1" stop-color="#EB9455"  /></radialGradient><linearGradient id="linear_fill_zAUH4SX58wFxJkovLmhCM_1" x1="256" y1="43" x2="256" y2="315.9765625" gradientUnits="userSpaceOnUse"><stop offset="0" stop-color="#32B83F"  /><stop offset="1" stop-color="#20A82E" stop-opacity="0.01" /></linearGradient></defs></svg>