<svg xmlns="http://www.w3.org/2000/svg" xmlns:xlink="http://www.w3.org/1999/xlink" width="512" height="512" viewBox="0 0 512 512" fill="none"><g><path d="M469 256C469 383.8 383.8 469 256 469C128.2 469 43 383.8 43 256C43 128.2 128.2 43 256 43C383.8 43 469 128.2 469 256Z"   fill="url(#linear_fill_HNtqpFSw1ROwI18uUMh7o)" ></path></g><g mask="url(#mask-mj73NDulUdk047DULEZdz)" opacity="0.5"><g><ellipse cx="83.624912109375" cy="255.995009765625" rx="91.965" ry="56.485"   fill="#F68240" ></ellipse></g></g><g mask="url(#mask-mj73NDulUdk047DULEZdz)" opacity="0.5"><g><ellipse cx="428.37491210937503" cy="255.995009765625" rx="91.965" ry="56.485"   fill="#F68240" ></ellipse></g></g><g><path     fill="url(#linear_fill_u6KlBjWQniD7DqaMna8eV_0)"  d="M387 337C387 265.203 328.797 207 257 207L255 207C183.203 207 125 265.203 125 337L387 337"></path></g><path     fill="url(#linear_fill_rh8ZaTGvHmDX6idspG0NO_0)"  d="M190 207L322 207L322 241.667C322 253.449 312.449 263 300.667 263L211.333 263C199.551 263 190 253.449 190 241.667L190 207Z"></path><path    stroke="rgba(0, 0, 0, 1)" stroke-width="22" stroke-linejoin="round"   d="M166 147L224 173.923L166 197"></path><path    stroke="rgba(0, 0, 0, 1)" stroke-width="22" stroke-linejoin="round" stroke-linecap="round"  d="M346 147L288 173.923L346 197"></path><path    stroke="rgba(0, 0, 0, 1)" stroke-width="22" stroke-linejoin="round" stroke-linecap="round"  d="M135 117.777C145.219 115.453 154.477 109.041 160.13 99.25"></path><path    stroke="rgba(0, 0, 0, 1)" stroke-width="22" stroke-linejoin="round" stroke-linecap="round"  d="M376.13 117.777C365.911 115.453 356.653 109.041 351 99.25"></path><defs><radialGradient id="linear_fill_HNtqpFSw1ROwI18uUMh7o" cx="0" cy="0" r="1" gradientTransform="translate(256 117.550048828125) rotate(-180) scale(351.44995117187494, 351.449951171875)" gradientUnits="userSpaceOnUse"><stop offset="0" stop-color="#FFD027"  /><stop offset="1" stop-color="#EB9455"  /></radialGradient><radialGradient id="linear_fill_mj73NDulUdk047DULEZdz" cx="0" cy="0" r="1" gradientTransform="translate(256 117.550048828125) rotate(-180) scale(351.44995117187494, 351.449951171875)" gradientUnits="userSpaceOnUse"><stop offset="0" stop-color="#FFD027"  /><stop offset="1" stop-color="#EB9455"  /></radialGradient><mask id="mask-mj73NDulUdk047DULEZdz" style="mask-type:alpha" maskUnits="userSpaceOnUse"><path d="M469 256C469 383.8 383.8 469 256 469C128.2 469 43 383.8 43 256C43 128.2 128.2 43 256 43C383.8 43 469 128.2 469 256Z"   fill="url(#linear_fill_mj73NDulUdk047DULEZdz)" ></path></mask><linearGradient id="linear_fill_u6KlBjWQniD7DqaMna8eV_0" x1="266.916748046875" y1="207" x2="266.916748046875" y2="337" gradientUnits="userSpaceOnUse"><stop offset="0" stop-color="#D44C4C"  /><stop offset="1" stop-color="#6D2347"  /></linearGradient><linearGradient id="linear_fill_rh8ZaTGvHmDX6idspG0NO_0" x1="256" y1="207" x2="256" y2="263" gradientUnits="userSpaceOnUse"><stop offset="0" stop-color="#F9E3EC"  /><stop offset="1" stop-color="#FFFFFF"  /></linearGradient></defs></svg>